# xmcd
#
# Track frame offsets: 
#        150
#        17507
#        34463
#        67026
#        88659
#        110908
#        124006
#        147053
#        167311
#        180078
#        200941
#        228760
#        248842
#        268549
#        285751
#
# Disc length: 4268 seconds
#
# Revision: 4
# Processed by: cddbd v1.5.2PL0 Copyright (c) Steve Scherf et al.
# Submitted via: ExactAudioCopyFreeDBPlugin 1.0
#
DISCID=c710aa0f
DTITLE=Various Artist - This Is The Blues vol. 4
DYEAR=2010
DGENRE=Blues
TTITLE0=M. Taylor M. Middelton G. McLean M. Bailey P. Brown - This is 
TTITLE0=Hip
TTITLE1=The Pretty Things - Judgment Day
TTITLE2=S. White "Rabbit" Bundrick K. Harada J. Allen - Looking For So
TTITLE2=mebody
TTITLE3=G. Brooker A. Fairwether-Low M. Pegg H. Spinetti - Baby Lee
TTITLE4=Maggie Bell Big Jim Sullivan - Blind Man
TTITLE5=I. Anderson A. Giddings J. McKenzie P. Brown - Man Of The Worl
TTITLE5=d
TTITLE6=A. Brown D. Heckstall-Smith R. Ward M. Williams G. Scuz J. Dan
TTITLE6=ford P. Brown - The Green Manalishi
TTITLE7=H. Mandel J. Paris W. Bascomb D. Duewhite P. Brown - Watch Out
TTITLE8=R. Gomez T. Turner B. Chouinard "Even" S. Levee - Lazy Poker B
TTITLE8=lues
TTITLE9=S. Sterling F. Morroka C. Wilson K. Greene L. Walter - The Bus
TTITLE9=iness
TTITLE10=T. Topham J. McCarthy A. Cleveland - Drifting
TTITLE11=K. Lembo M. Doyle C. Lamanna M. Doyle  - A Fool No More
TTITLE12=G. Fame T. Powell J. Powell - If You Live
TTITLE13=Miller Anderson - Dont Let Me Be Misunderstood
TTITLE14=B. Sheehan Roy Z G. Bissonette D. van Booven T. Mandel - Oh W
TTITLE14=ell
EXTD=
EXTT0=
EXTT1=
EXTT2=
EXTT3=
EXTT4=
EXTT5=
EXTT6=
EXTT7=
EXTT8=
EXTT9=
EXTT10=
EXTT11=
EXTT12=
EXTT13=
EXTT14=
PLAYORDER=
